<?xml version="1.0" encoding="UTF-8" standalone="no"?>
<!DOCTYPE svg PUBLIC "-//W3C//DTD SVG 1.1//EN" "http://www.w3.org/Graphics/SVG/1.1/DTD/svg11.dtd">
<svg xmlns="http://www.w3.org/2000/svg" version="1.1" viewBox="0.00 0.00 329.00 85.00">
<path fill="#db202c" d="
  M 38.30 16.57
  C 39.43 19.25 39.91 22.22 39.92 25.16
  Q 39.98 38.54 39.96 51.75
  Q 39.95 55.82 39.06 59.49
  Q 37.70 65.07 33.03 68.10
  Q 30.12 69.98 24.64 70.51
  Q 17.60 71.19 10.36 72.23
  A 0.28 0.28 0.0 0 1 10.04 71.95
  L 10.03 10.99
  A 0.93 0.93 0.0 0 1 10.94 10.06
  Q 18.80 9.90 26.32 9.96
  Q 30.94 10.01 33.27 11.27
  Q 36.90 13.24 38.30 16.57
  Z
  M 19.97 19.05
  L 20.05 60.75
  A 0.27 0.27 0.0 0 0 20.32 61.02
  L 25.01 61.01
  A 6.04 5.04 89.9 0 0 30.04 54.96
  L 29.98 24.80
  A 6.04 5.04 89.9 0 0 24.93 18.77
  L 20.24 18.78
  A 0.27 0.27 0.0 0 0 19.97 19.05
  Z"
/>
<path fill="#db202c" d="
  M 53.35 57.59
  L 52.03 66.53
  Q 51.87 67.67 50.72 67.75
  L 43.70 68.23
  Q 42.84 68.29 42.86 67.42
  Q 42.93 65.08 43.42 63.20
  C 44.02 60.90 43.91 58.79 44.44 56.52
  Q 44.78 55.07 45.00 53.58
  Q 46.41 44.23 47.96 35.24
  Q 50.06 23.00 52.06 10.65
  A 0.76 0.76 0.0 0 1 52.81 10.01
  L 65.84 9.99
  A 1.04 1.04 0.0 0 1 66.88 10.85
  L 76.19 63.96
  Q 76.48 65.66 74.76 65.74
  L 66.68 66.12
  Q 65.94 66.15 65.98 65.42
  Q 66.07 63.14 65.28 60.79
  C 64.84 59.47 65.13 58.13 64.97 56.77
  A 0.70 0.69 -5.1 0 0 64.22 56.15
  L 54.20 56.80
  A 0.93 0.92 -87.7 0 0 53.35 57.59
  Z
  M 57.30 32.04
  Q 56.45 38.68 54.82 47.49
  Q 54.67 48.29 55.48 48.25
  L 62.65 47.95
  A 0.54 0.53 84.7 0 0 63.16 47.33
  L 59.49 24.17
  Q 59.08 21.60 58.57 24.15
  Q 57.84 27.86 57.30 32.04
  Z"
/>
<path fill="#db202c" d="
  M 90.75 31.75
  L 96.97 10.32
  Q 97.01 10.19 97.14 10.18
  Q 101.97 9.73 106.65 10.20
  Q 106.72 10.21 106.70 10.27
  Q 101.79 24.73 96.98 39.24
  C 95.92 42.44 94.95 45.35 94.96 48.83
  Q 94.98 56.16 94.98 63.73
  Q 94.98 64.21 94.50 64.25
  L 85.33 64.96
  Q 84.94 64.99 84.95 64.60
  Q 85.10 57.95 85.01 50.51
  Q 84.97 46.67 83.83 43.28
  Q 78.49 27.37 73.17 10.88
  Q 72.90 10.01 73.80 10.01
  L 82.51 10.00
  A 1.16 1.15 -8.0 0 1 83.62 10.83
  L 89.67 31.75
  Q 90.21 33.61 90.75 31.75
  Z"
/>
<path fill="#db202c" d="
  M 120.69 54.58
  L 135.06 54.15
  A 0.67 0.67 0.0 0 1 135.75 54.82
  L 135.74 61.99
  A 0.67 0.67 0.0 0 1 135.09 62.66
  L 110.67 63.31
  A 0.67 0.67 0.0 0 1 109.98 62.64
  L 110.03 10.65
  A 0.67 0.67 0.0 0 1 110.70 9.98
  L 119.34 10.05
  A 0.67 0.67 0.0 0 1 120.01 10.72
  L 120.00 53.91
  A 0.67 0.67 0.0 0 0 120.69 54.58
  Z"
/>
<path fill="#db202c" d="
  M 158.25 52.77
  L 148.46 52.75
  A 1.37 1.36 1.5 0 0 147.09 54.04
  C 146.99 55.76 147.09 57.52 146.39 59.13
  Q 145.90 60.28 146.05 61.47
  Q 146.15 62.37 145.24 62.39
  L 137.82 62.57
  Q 136.92 62.59 136.91 61.69
  C 136.87 59.05 137.89 57.02 138.02 54.55
  Q 138.11 52.78 138.71 51.04
  C 139.21 49.57 138.87 48.11 139.43 46.60
  C 140.02 45.02 139.93 43.57 140.23 41.98
  Q 143.29 25.86 146.04 10.67
  A 0.82 0.82 0.0 0 1 146.85 9.99
  L 160.08 10.02
  Q 160.89 10.03 161.04 10.83
  L 170.15 60.89
  Q 170.38 62.16 169.08 62.16
  L 160.95 62.15
  Q 159.83 62.15 159.94 61.03
  Q 160.10 59.35 159.46 57.73
  C 158.93 56.38 159.03 55.02 159.01 53.52
  Q 159.00 52.77 158.25 52.77
  Z
  M 148.92 44.60
  A 0.37 0.37 0.0 0 0 149.28 45.03
  L 156.78 45.03
  A 0.37 0.37 0.0 0 0 157.14 44.60
  L 153.39 22.30
  A 0.37 0.37 0.0 0 0 152.67 22.30
  L 148.92 44.60
  Z"
/>
<path fill="#db202c" d="
  M 183.30 27.00
  Q 183.12 29.55 183.08 31.86
  Q 182.86 46.60 183.06 61.90
  A 0.42 0.41 90.0 0 1 182.64 62.33
  L 174.52 62.22
  Q 174.08 62.21 174.08 61.77
  L 173.92 10.81
  A 0.77 0.77 0.0 0 1 174.69 10.03
  L 185.58 10.02
  Q 186.67 10.01 186.99 11.06
  L 195.35 38.65
  Q 195.77 40.04 195.77 38.59
  L 195.76 10.76
  Q 195.76 10.03 196.49 10.03
  L 204.01 9.99
  Q 204.77 9.99 204.77 10.76
  L 204.79 62.14
  Q 204.79 62.94 203.98 62.93
  L 195.11 62.72
  A 1.01 1.01 0.0 0 1 194.17 62.00
  L 183.76 26.95
  Q 183.39 25.70 183.30 27.00
  Z"
/>
<path fill="#db202c" d="
  M 220.99 18.29
  L 220.99 32.31
  A 0.38 0.38 0.0 0 0 221.36 32.69
  L 232.63 33.01
  A 0.38 0.38 0.0 0 1 233.00 33.39
  L 233.02 40.69
  A 0.38 0.38 0.0 0 1 232.63 41.07
  L 221.38 40.92
  A 0.38 0.38 0.0 0 0 220.99 41.30
  L 221.00 63.21
  A 0.38 0.38 0.0 0 1 220.60 63.59
  L 211.36 63.04
  A 0.38 0.38 0.0 0 1 211.00 62.66
  L 211.00 10.39
  A 0.38 0.38 0.0 0 1 211.38 10.01
  L 236.14 10.00
  A 0.38 0.38 0.0 0 1 236.52 10.38
  L 236.50 17.61
  A 0.38 0.38 0.0 0 1 236.12 17.99
  L 221.37 17.91
  A 0.38 0.38 0.0 0 0 220.99 18.29
  Z"
/>
<path fill="#db202c" d="
  M 251.02 56.62
  L 265.51 57.46
  A 0.53 0.53 0.0 0 1 266.01 57.99
  L 266.02 65.90
  A 0.53 0.53 0.0 0 1 265.45 66.43
  L 240.78 64.65
  A 0.53 0.53 0.0 0 1 240.29 64.12
  L 240.29 10.53
  A 0.53 0.53 0.0 0 1 240.82 10.00
  L 250.00 10.00
  A 0.53 0.53 0.0 0 1 250.53 10.53
  L 250.52 56.09
  A 0.53 0.53 0.0 0 0 251.02 56.62
  Z"
/>
<path fill="#db202c" d="
  M 269.65 66.35
  L 269.69 10.38
  A 0.38 0.38 0.0 0 1 270.07 10.00
  L 279.39 10.00
  A 0.38 0.38 0.0 0 1 279.77 10.38
  L 279.78 67.48
  A 0.38 0.38 0.0 0 1 279.35 67.86
  L 269.98 66.73
  A 0.38 0.38 0.0 0 1 269.65 66.35
  Z"
/>
<path fill="#db202c" d="
  M 293.02 68.99
  L 284.09 68.05
  A 0.31 0.31 0.0 0 1 283.83 67.64
  L 294.31 38.20
  A 0.31 0.31 0.0 0 0 294.31 38.00
  L 284.62 10.41
  A 0.31 0.31 0.0 0 1 284.91 10.00
  L 294.71 10.01
  A 0.31 0.31 0.0 0 1 295.01 10.22
  L 301.44 30.01
  A 0.31 0.31 0.0 0 0 302.03 30.01
  L 308.61 10.20
  A 0.31 0.31 0.0 0 1 308.91 9.99
  L 317.73 10.06
  A 0.31 0.31 0.0 0 1 318.02 10.47
  L 308.33 38.74
  A 0.31 0.31 0.0 0 0 308.33 38.94
  L 318.81 71.78
  A 0.31 0.31 0.0 0 1 318.48 72.18
  L 308.45 70.90
  A 0.31 0.31 0.0 0 1 308.19 70.68
  L 301.05 47.17
  A 0.31 0.31 0.0 0 0 300.46 47.16
  L 293.35 68.78
  A 0.31 0.31 0.0 0 1 293.02 68.99
  Z"
/>
</svg>
